<svg xmlns="http://www.w3.org/2000/svg" viewBox="0 0 64 64" role="img" aria-label="Google">
  <rect width="64" height="64" rx="16" fill="#101010"/>
  <path d="M48.2 33c0-1.6-.1-3-.4-4.2H32v8h9.1c-.4 2.1-1.6 3.9-3.4 5.1l5.3 4.1c3.1-2.9 4.9-7.1 4.9-13z" fill="#4285f4"/>
  <path d="M32 49.5c4.7 0 8.7-1.6 11.6-4.3l-5.3-4.1c-1.5 1-3.4 1.6-6.3 1.6-4.8 0-8.9-3.2-10.4-7.6l-5.5 4.3C19 44.1 25.1 49.5 32 49.5z" fill="#34a853"/>
  <path d="M21.6 35.1a10.2 10.2 0 0 1 0-6.2l-5.5-4.3a17 17 0 0 0 0 14.8l5.5-4.3z" fill="#fbbc05"/>
  <path d="M32 18.5c2.6 0 4.9.9 6.7 2.6l5-5c-3-2.8-7-4.6-11.7-4.6-6.9 0-13 5.4-16.1 10.1l5.5 4.3C23.1 21.7 27.2 18.5 32 18.5z" fill="#ea4335"/>
</svg>
