<svg xmlns="http://www.w3.org/2000/svg" viewBox="0 0 24 24" role="img" aria-label="GitHub">
  <path fill="#050505" d="M12 .8a11.2 11.2 0 0 0-3.54 21.83c.56.1.76-.24.76-.54v-2.02c-3.08.67-3.73-1.3-3.73-1.3-.5-1.27-1.22-1.61-1.22-1.61-1-.69.08-.68.08-.68 1.1.08 1.68 1.14 1.68 1.14.98 1.68 2.58 1.2 3.2.92.1-.71.38-1.2.7-1.48-2.46-.28-5.05-1.23-5.05-5.48 0-1.21.43-2.2 1.14-2.98-.12-.28-.5-1.42.1-2.94 0 0 .94-.3 3.06 1.14a10.6 10.6 0 0 1 5.58 0c2.12-1.44 3.06-1.14 3.06-1.14.6 1.52.22 2.66.1 2.94.71.78 1.14 1.77 1.14 2.98 0 4.26-2.59 5.2-5.06 5.48.4.35.75 1.03.75 2.08v3.08c0 .3.2.65.77.54A11.2 11.2 0 0 0 12 .8Z"/>
</svg>
