<svg xmlns="http://www.w3.org/2000/svg" viewBox="0 0 24 24" role="img" aria-label="LinkedIn">
  <path fill="#ffffff" d="M20.45 20.45h-3.56v-5.57c0-1.33-.03-3.04-1.86-3.04-1.85 0-2.13 1.45-2.13 2.95v5.66H9.34V8.98h3.42v1.57h.05c.48-.9 1.64-1.85 3.37-1.85 3.6 0 4.27 2.37 4.27 5.46v6.29ZM5.32 7.41a2.06 2.06 0 1 1 0-4.12 2.06 2.06 0 0 1 0 4.12Zm1.78 13.04H3.54V8.98H7.1v11.47ZM22.23 0H1.76C.8 0 0 .77 0 1.72v20.56C0 23.23.79 24 1.76 24h20.47c.97 0 1.77-.77 1.77-1.72V1.72C24 .77 23.2 0 22.23 0Z"/>
</svg>
